<?xml version="1.0" encoding="UTF-8"?><!DOCTYPE svg PUBLIC "-//W3C//DTD SVG 1.1//EN" "http://www.w3.org/Graphics/SVG/1.1/DTD/svg11.dtd"><svg xmlns="http://www.w3.org/2000/svg" xmlns:xlink="http://www.w3.org/1999/xlink"><symbol id="battery" viewBox="0 0 58 58">
<path style="fill:#424A60;" d="M41.536,58H16.464C15.103,58,14,56.897,14,55.536V6.464C14,5.103,15.103,4,16.464,4h25.072
	C42.897,4,44,5.103,44,6.464v49.072C44,56.897,42.897,58,41.536,58z"/>
<rect x="24" style="fill:#D8A852;" width="10" height="4"/>
<path style="fill:#43B05C;" d="M41.536,58H16.464C15.103,58,14,56.897,14,55.536V25.464C14,24.103,15.103,23,16.464,23h25.072
	C42.897,23,44,24.103,44,25.464v30.072C44,56.897,42.897,58,41.536,58z"/>
<g>
	<circle style="fill:#A4E869;" cx="17" cy="52" r="1"/>
	<circle style="fill:#A4E869;" cx="20" cy="55" r="1"/>
	<circle style="fill:#A4E869;" cx="23" cy="52" r="1"/>
	<circle style="fill:#A4E869;" cx="29" cy="52" r="1"/>
	<circle style="fill:#A4E869;" cx="26" cy="55" r="1"/>
	<circle style="fill:#A4E869;" cx="32" cy="55" r="1"/>
	<circle style="fill:#A4E869;" cx="35" cy="52" r="1"/>
	<circle style="fill:#A4E869;" cx="41" cy="52" r="1"/>
	<circle style="fill:#A4E869;" cx="38" cy="55" r="1"/>
	<circle style="fill:#A4E869;" cx="17" cy="46" r="1"/>
	<circle style="fill:#A4E869;" cx="20" cy="49" r="1"/>
	<circle style="fill:#A4E869;" cx="23" cy="46" r="1"/>
	<circle style="fill:#A4E869;" cx="29" cy="46" r="1"/>
	<circle style="fill:#A4E869;" cx="26" cy="49" r="1"/>
	<circle style="fill:#A4E869;" cx="32" cy="49" r="1"/>
	<circle style="fill:#A4E869;" cx="35" cy="46" r="1"/>
	<circle style="fill:#A4E869;" cx="41" cy="46" r="1"/>
	<circle style="fill:#A4E869;" cx="38" cy="49" r="1"/>
	<circle style="fill:#A4E869;" cx="17" cy="40" r="1"/>
	<circle style="fill:#A4E869;" cx="20" cy="43" r="1"/>
	<circle style="fill:#A4E869;" cx="23" cy="40" r="1"/>
	<circle style="fill:#A4E869;" cx="29" cy="40" r="1"/>
	<circle style="fill:#A4E869;" cx="26" cy="43" r="1"/>
	<circle style="fill:#A4E869;" cx="32" cy="43" r="1"/>
	<circle style="fill:#A4E869;" cx="35" cy="40" r="1"/>
	<circle style="fill:#A4E869;" cx="41" cy="40" r="1"/>
	<circle style="fill:#A4E869;" cx="38" cy="43" r="1"/>
	<circle style="fill:#A4E869;" cx="17" cy="34" r="1"/>
	<circle style="fill:#A4E869;" cx="20" cy="37" r="1"/>
	<circle style="fill:#A4E869;" cx="23" cy="34" r="1"/>
	<circle style="fill:#A4E869;" cx="29" cy="34" r="1"/>
	<circle style="fill:#A4E869;" cx="26" cy="37" r="1"/>
	<circle style="fill:#A4E869;" cx="32" cy="37" r="1"/>
	<circle style="fill:#A4E869;" cx="35" cy="34" r="1"/>
	<circle style="fill:#A4E869;" cx="41" cy="34" r="1"/>
	<circle style="fill:#A4E869;" cx="38" cy="37" r="1"/>
	<circle style="fill:#A4E869;" cx="17" cy="28" r="1"/>
	<circle style="fill:#A4E869;" cx="20" cy="31" r="1"/>
	<circle style="fill:#A4E869;" cx="23" cy="28" r="1"/>
	<circle style="fill:#A4E869;" cx="29" cy="28" r="1"/>
	<circle style="fill:#A4E869;" cx="26" cy="31" r="1"/>
	<circle style="fill:#A4E869;" cx="32" cy="31" r="1"/>
	<circle style="fill:#A4E869;" cx="35" cy="28" r="1"/>
	<circle style="fill:#A4E869;" cx="41" cy="28" r="1"/>
	<circle style="fill:#A4E869;" cx="38" cy="31" r="1"/>
	<circle style="fill:#A4E869;" cx="20" cy="25" r="1"/>
	<circle style="fill:#A4E869;" cx="26" cy="25" r="1"/>
	<circle style="fill:#A4E869;" cx="32" cy="25" r="1"/>
	<circle style="fill:#A4E869;" cx="38" cy="25" r="1"/>
</g>
<path style="fill:#292F3A;" d="M41.536,6C41.792,6,42,6.208,42,6.464v49.072C42,55.792,41.792,56,41.536,56H16.464
	C16.208,56,16,55.792,16,55.536V6.464C16,6.208,16.208,6,16.464,6H41.536 M41.536,4H16.464C15.103,4,14,5.103,14,6.464v49.072
	C14,56.897,15.103,58,16.464,58h25.072C42.897,58,44,56.897,44,55.536V6.464C44,5.103,42.897,4,41.536,4L41.536,4z"/>
<g>
</g>
<g>
</g>
<g>
</g>
<g>
</g>
<g>
</g>
<g>
</g>
<g>
</g>
<g>
</g>
<g>
</g>
<g>
</g>
<g>
</g>
<g>
</g>
<g>
</g>
<g>
</g>
<g>
</g>
</symbol><symbol id="calendar" viewBox="0 0 56 56">
<polygon style="fill:#61B872;" points="41,5 15,5 0,5 0,16 56,16 56,5 "/>
<circle style="fill:#50965C;" cx="19" cy="9" r="2"/>
<circle style="fill:#50965C;" cx="25" cy="9" r="2"/>
<circle style="fill:#50965C;" cx="31" cy="9" r="2"/>
<circle style="fill:#50965C;" cx="37" cy="9" r="2"/>
<rect y="16" style="fill:#EDEADA;" width="56" height="40"/>
<g>
	<circle style="fill:#424A60;" cx="21" cy="24" r="1"/>
	<circle style="fill:#424A60;" cx="28" cy="24" r="1"/>
	<circle style="fill:#424A60;" cx="35" cy="24" r="1"/>
	<circle style="fill:#424A60;" cx="42" cy="24" r="1"/>
	<circle style="fill:#424A60;" cx="49" cy="24" r="1"/>
	<circle style="fill:#424A60;" cx="7" cy="32" r="1"/>
	<circle style="fill:#424A60;" cx="14" cy="32" r="1"/>
	<circle style="fill:#424A60;" cx="21" cy="32" r="1"/>
	<circle style="fill:#424A60;" cx="28" cy="32" r="1"/>
	<circle style="fill:#424A60;" cx="35" cy="32" r="1"/>
	<circle style="fill:#424A60;" cx="42" cy="32" r="1"/>
	<circle style="fill:#424A60;" cx="49" cy="32" r="1"/>
	<circle style="fill:#424A60;" cx="7" cy="39" r="1"/>
	<circle style="fill:#424A60;" cx="14" cy="39" r="1"/>
	<circle style="fill:#424A60;" cx="21" cy="39" r="1"/>
	<circle style="fill:#424A60;" cx="28" cy="39" r="1"/>
	<circle style="fill:#424A60;" cx="35" cy="39" r="1"/>
	<circle style="fill:#424A60;" cx="42" cy="39" r="1"/>
	<circle style="fill:#424A60;" cx="49" cy="39" r="1"/>
	<circle style="fill:#424A60;" cx="7" cy="47" r="1"/>
	<circle style="fill:#424A60;" cx="14" cy="47" r="1"/>
	<circle style="fill:#424A60;" cx="21" cy="47" r="1"/>
	<circle style="fill:#424A60;" cx="28" cy="47" r="1"/>
	<circle style="fill:#424A60;" cx="35" cy="47" r="1"/>
</g>
<path style="fill:#D8A852;" d="M37,0c-1.13,0-2.162,0.391-3,1.025c0.534,0.405,0.979,0.912,1.315,1.495C35.796,2.192,36.376,2,37,2
	c1.654,0,3,1.346,3,3s-1.346,3-3,3c-0.553,0-1,0.447-1,1s0.447,1,1,1c2.757,0,5-2.243,5-5S39.757,0,37,0z"/>
<path style="fill:#A37F46;" d="M32.685,2.52C32.261,3.254,32,4.093,32,5h2C34,3.97,33.478,3.061,32.685,2.52z"/>
<path style="fill:#A37F46;" d="M26.685,2.52C26.261,3.254,26,4.093,26,5h2C28,3.97,27.478,3.061,26.685,2.52z"/>
<path style="fill:#D8A852;" d="M35.315,2.52C34.979,1.937,34.534,1.43,34,1.025C33.162,0.391,32.13,0,31,0s-2.162,0.391-3,1.025
	c0.534,0.405,0.979,0.912,1.315,1.495C29.796,2.192,30.376,2,31,2s1.204,0.192,1.685,0.52C33.478,3.061,34,3.97,34,5
	c0,1.654-1.346,3-3,3c-0.553,0-1,0.447-1,1s0.447,1,1,1c2.757,0,5-2.243,5-5C36,4.093,35.739,3.254,35.315,2.52z"/>
<path style="fill:#A37F46;" d="M20.685,2.52C20.261,3.254,20,4.093,20,5h2C22,3.97,21.478,3.061,20.685,2.52z"/>
<path style="fill:#D8A852;" d="M29.315,2.52C28.979,1.937,28.534,1.43,28,1.025C27.162,0.391,26.13,0,25,0s-2.162,0.391-3,1.025
	c0.534,0.405,0.979,0.912,1.315,1.495C23.796,2.192,24.376,2,25,2s1.204,0.192,1.685,0.52C27.478,3.061,28,3.97,28,5
	c0,1.654-1.346,3-3,3c-0.553,0-1,0.447-1,1s0.447,1,1,1c2.757,0,5-2.243,5-5C30,4.093,29.739,3.254,29.315,2.52z"/>
<path style="fill:#D8A852;" d="M23.315,2.52C22.979,1.937,22.534,1.43,22,1.025C21.162,0.391,20.13,0,19,0c-2.757,0-5,2.243-5,5h2
	c0-1.654,1.346-3,3-3c0.624,0,1.204,0.192,1.685,0.52C21.478,3.061,22,3.97,22,5c0,1.654-1.346,3-3,3c-0.553,0-1,0.447-1,1
	s0.447,1,1,1c2.757,0,5-2.243,5-5C24,4.093,23.739,3.254,23.315,2.52z"/>
<g>
</g>
<g>
</g>
<g>
</g>
<g>
</g>
<g>
</g>
<g>
</g>
<g>
</g>
<g>
</g>
<g>
</g>
<g>
</g>
<g>
</g>
<g>
</g>
<g>
</g>
<g>
</g>
<g>
</g>
</symbol><symbol id="controls" viewBox="0 0 54 54">
<path style="fill:#7383BF;" d="M53,10H17c-0.553,0-1-0.447-1-1s0.447-1,1-1h36c0.553,0,1,0.447,1,1S53.553,10,53,10z"/>
<path style="fill:#7383BF;" d="M5,10H1c-0.553,0-1-0.447-1-1s0.447-1,1-1h4c0.553,0,1,0.447,1,1S5.553,10,5,10z"/>
<path style="fill:#7383BF;" d="M53,29H33c-0.553,0-1-0.447-1-1s0.447-1,1-1h20c0.553,0,1,0.447,1,1S53.553,29,53,29z"/>
<path style="fill:#7383BF;" d="M21,29H1c-0.553,0-1-0.447-1-1s0.447-1,1-1h20c0.553,0,1,0.447,1,1S21.553,29,21,29z"/>
<path style="fill:#7383BF;" d="M37,48H1c-0.553,0-1-0.447-1-1s0.447-1,1-1h36c0.553,0,1,0.447,1,1S37.553,48,37,48z"/>
<path style="fill:#7383BF;" d="M53,48h-4c-0.553,0-1-0.447-1-1s0.447-1,1-1h4c0.553,0,1,0.447,1,1S53.553,48,53,48z"/>
<rect x="5" y="4" style="fill:#424A60;" width="12" height="10"/>
<rect x="21" y="23" style="fill:#424A60;" width="12" height="10"/>
<rect x="37" y="42" style="fill:#424A60;" width="12" height="10"/>
<rect x="5" y="2" style="fill:#556080;" width="12" height="10"/>
<rect x="21" y="21" style="fill:#556080;" width="12" height="10"/>
<rect x="37" y="40" style="fill:#556080;" width="12" height="10"/>
<g>
</g>
<g>
</g>
<g>
</g>
<g>
</g>
<g>
</g>
<g>
</g>
<g>
</g>
<g>
</g>
<g>
</g>
<g>
</g>
<g>
</g>
<g>
</g>
<g>
</g>
<g>
</g>
<g>
</g>
</symbol><symbol id="folder" viewBox="0 0 57.912 57.912">
<path style="fill:#F7B563;" d="M52.723,55.956H5.189c-0.134,0-0.248-0.098-0.268-0.23L0.003,23.268
	c-0.025-0.164,0.102-0.312,0.268-0.312h57.37c0.166,0,0.293,0.148,0.268,0.312l-4.918,32.458
	C52.971,55.858,52.857,55.956,52.723,55.956z"/>
<g>
	<path style="fill:#B5885B;" d="M53.956,22.956V7.724c0-0.424-0.344-0.768-0.768-0.768H22.391c-0.27,0-0.52-0.141-0.658-0.373
		L19.18,2.329c-0.139-0.231-0.389-0.373-0.658-0.373H4.724C4.3,1.956,3.956,2.3,3.956,2.724v20.232H53.956z"/>
</g>
<rect x="7.956" y="15.956" style="fill:#FFFFFF;" width="42" height="7"/>
<g>
</g>
<g>
</g>
<g>
</g>
<g>
</g>
<g>
</g>
<g>
</g>
<g>
</g>
<g>
</g>
<g>
</g>
<g>
</g>
<g>
</g>
<g>
</g>
<g>
</g>
<g>
</g>
<g>
</g>
</symbol></svg>